<?xml version="1.0" encoding="UTF-8"?>
<!DOCTYPE svg PUBLIC "-//W3C//DTD SVG 1.1//EN" "http://www.w3.org/Graphics/SVG/1.1/DTD/svg11.dtd">
<!-- Creator: CorelDRAW 2020 (64-Bit) -->
<svg xmlns="http://www.w3.org/2000/svg" xml:space="preserve" width="373px" height="46px" version="1.1" style="shape-rendering:geometricPrecision; text-rendering:geometricPrecision; image-rendering:optimizeQuality; fill-rule:evenodd; clip-rule:evenodd"
viewBox="0 0 372.74 45.83"
 xmlns:xlink="http://www.w3.org/1999/xlink"
 xmlns:xodm="http://www.corel.com/coreldraw/odm/2003">
 <defs>
  <style type="text/css">
   <![CDATA[
    .fil1 {fill:#848688}
    .fil0 {fill:#201E1E;fill-rule:nonzero}
   ]]>
  </style>
 </defs>
 <g id="Layer_x0020_1">
  <metadata id="CorelCorpID_0Corel-Layer"/>
  <path class="fil0" d="M18.99 44.95c-2.6,0 -5.05,-0.39 -7.36,-1.16 -2.3,-0.78 -4.32,-2.04 -6.04,-3.78 -1.71,-1.73 -3.08,-4 -4.08,-6.78 -1.01,-2.79 -1.51,-6.22 -1.51,-10.28 0,-4.07 0.5,-7.51 1.51,-10.31 1,-2.81 2.37,-5.08 4.08,-6.79 1.72,-1.72 3.74,-2.97 6.04,-3.74 2.31,-0.78 4.76,-1.17 7.36,-1.17l16.47 0 0 8.55 -15.28 0c-1.21,0 -2.38,0.15 -3.49,0.44 -1.11,0.3 -2.11,0.8 -3.02,1.51 -0.9,0.71 -1.66,1.66 -2.29,2.83 -0.63,1.17 -1.07,2.64 -1.32,4.4l25.4 0 0 8.55 -25.4 0c0.25,1.76 0.69,3.23 1.32,4.4 0.63,1.18 1.39,2.12 2.29,2.83 0.91,0.71 1.91,1.22 3.02,1.51 1.11,0.29 2.28,0.44 3.49,0.44l15.28 0 0 8.55 -16.47 0zm22.63 -44.01l13.39 0 11 30.56c0.88,-2.43 1.78,-4.94 2.71,-7.52 0.92,-2.57 1.86,-5.17 2.82,-7.79 0.97,-2.62 1.91,-5.22 2.83,-7.8 0.93,-2.57 1.83,-5.06 2.71,-7.45l13.32 0 0 44.01 -9.55 0 0 -27.28 -9.85 27.28 -9.98 0 -9.59 -27.28 0 27.28 -9.81 0 0 -44.01zm69.34 0l10 0 19.61 44.01 -10.87 0 -3.65 -8.55 -20.24 0 -3.59 8.55 -10.87 0 19.61 -44.01zm11.51 26.91c-1.13,-2.68 -2.21,-5.22 -3.24,-7.61 -1.03,-2.39 -2.13,-4.96 -3.3,-7.73l-6.48 15.34 13.02 0zm19.05 -26.91l9.8 0 0 17.73 18.3 0 0 -17.73 9.81 0 0 44.01 -9.81 0 0 -17.73 -18.3 0 0 17.73 -9.8 0 0 -44.01zm42.12 22.01c0,-4.24 0.55,-7.82 1.66,-10.75 1.11,-2.94 2.63,-5.31 4.56,-7.11 1.93,-1.8 4.2,-3.1 6.82,-3.9 2.62,-0.79 5.42,-1.19 8.39,-1.19 2.9,0 5.63,0.4 8.21,1.19 2.58,0.8 4.84,2.1 6.79,3.9 1.95,1.8 3.5,4.17 4.65,7.11 1.15,2.93 1.73,6.51 1.73,10.75 0,4.23 -0.58,7.8 -1.73,10.71 -1.15,2.92 -2.7,5.28 -4.65,7.08 -1.95,1.8 -4.21,3.1 -6.79,3.9 -2.58,0.79 -5.31,1.19 -8.21,1.19 -2.97,0 -5.77,-0.4 -8.39,-1.19 -2.62,-0.8 -4.89,-2.1 -6.82,-3.9 -1.93,-1.8 -3.45,-4.16 -4.56,-7.08 -1.11,-2.91 -1.66,-6.48 -1.66,-10.71zm21.43 14.33c1.6,0 3.1,-0.22 4.5,-0.66 1.4,-0.44 2.63,-1.22 3.68,-2.33 1.05,-1.11 1.87,-2.58 2.48,-4.43 0.61,-1.84 0.91,-4.15 0.91,-6.91 0,-2.77 -0.3,-5.09 -0.91,-6.95 -0.61,-1.87 -1.43,-3.34 -2.48,-4.43 -0.88,-0.92 -1.89,-1.61 -3.02,-2.08 0.02,-0.19 0.03,-0.38 0.03,-0.57 0,-2.87 -2.33,-5.2 -5.21,-5.2 -2.87,0 -5.2,2.33 -5.2,5.2 0,0.19 0.01,0.38 0.03,0.57 -1.15,0.47 -2.16,1.16 -3.04,2.08 -1.05,1.09 -1.88,2.56 -2.48,4.43 -0.61,1.86 -0.92,4.18 -0.92,6.95 0,2.76 0.31,5.07 0.92,6.91 0.6,1.85 1.43,3.32 2.48,4.43 1.05,1.11 2.28,1.89 3.71,2.33 1.42,0.44 2.93,0.66 4.52,0.66z"/>
  <path class="fil0" d="M244.37 0.94l21.4 0c2.61,0 5.05,0.39 7.34,1.17 2.29,0.77 4.29,2.02 6.01,3.74 1.72,1.71 3.09,3.98 4.1,6.79 1,2.8 1.51,6.24 1.51,10.31 0,4.06 -0.51,7.49 -1.51,10.28 -1.01,2.78 -2.38,5.05 -4.1,6.78 -1.72,1.74 -3.72,3 -6.01,3.78 -2.29,0.77 -4.73,1.16 -7.34,1.16l-21.4 0 0 -44.01zm20.15 35.46c1.42,0 2.76,-0.21 4.04,-0.63 1.28,-0.42 2.38,-1.15 3.32,-2.2 0.94,-1.05 1.68,-2.43 2.22,-4.15 0.55,-1.72 0.82,-3.88 0.82,-6.47 0,-2.6 -0.27,-4.77 -0.82,-6.51 -0.54,-1.74 -1.28,-3.12 -2.22,-4.15 -0.94,-1.03 -2.04,-1.75 -3.32,-2.17 -1.28,-0.42 -2.62,-0.63 -4.04,-0.63l-10.35 0 0 26.91 10.35 0zm41.58 8.55c-2.6,0 -5.05,-0.39 -7.35,-1.16 -2.31,-0.78 -4.32,-2.04 -6.04,-3.78 -1.72,-1.73 -3.08,-4 -4.08,-6.78 -1.01,-2.79 -1.51,-6.22 -1.51,-10.28 0,-4.07 0.5,-7.51 1.51,-10.31 1,-2.81 2.36,-5.08 4.08,-6.79 1.72,-1.72 3.73,-2.97 6.04,-3.74 2.3,-0.78 4.75,-1.17 7.35,-1.17l16.47 0 0 8.55 -15.27 0c-1.22,0 -2.38,0.15 -3.49,0.44 -1.11,0.3 -2.12,0.8 -3.02,1.51 -0.9,0.71 -1.67,1.66 -2.29,2.83 -0.63,1.17 -1.07,2.64 -1.32,4.4l25.39 0 0 8.55 -25.39 0c0.25,1.76 0.69,3.23 1.32,4.4 0.62,1.18 1.39,2.12 2.29,2.83 0.9,0.71 1.91,1.22 3.02,1.51 1.11,0.29 2.27,0.44 3.49,0.44l15.27 0 0 8.55 -16.47 0zm17.42 -44.01l10.81 0 13.77 32.51 13.83 -32.51 10.81 0 -19.61 44.01 -10 0 -19.61 -44.01z"/>
  <path class="fil1" d="M233.7 44.98c2.87,0 5.2,-2.33 5.2,-5.21 0,-0.19 -0.01,-0.37 -0.03,-0.56 -0.21,0.09 -0.43,0.17 -0.65,0.24 -1.4,0.47 -2.9,0.7 -4.49,0.7 -1.59,0 -3.1,-0.23 -4.53,-0.7 -0.23,-0.07 -0.46,-0.15 -0.68,-0.25 -0.02,0.19 -0.03,0.38 -0.03,0.57 0,2.88 2.33,5.21 5.21,5.21z"/>
 </g>
</svg>
