<?xml version="1.0" encoding="UTF-8"?>
<!DOCTYPE svg PUBLIC "-//W3C//DTD SVG 1.1//EN" "http://www.w3.org/Graphics/SVG/1.1/DTD/svg11.dtd">
<!-- Creator: CorelDRAW 2020 (64-Bit) -->
<svg xmlns="http://www.w3.org/2000/svg" xml:space="preserve" width="55px" height="46px" version="1.1" style="shape-rendering:geometricPrecision; text-rendering:geometricPrecision; image-rendering:optimizeQuality; fill-rule:evenodd; clip-rule:evenodd"
viewBox="0 0 1.49 1.24"
 xmlns:xlink="http://www.w3.org/1999/xlink"
 xmlns:xodm="http://www.corel.com/coreldraw/odm/2003">
 <defs>
  <style type="text/css">
   <![CDATA[
    .fil1 {fill:#848688}
    .fil0 {fill:#201E1E;fill-rule:nonzero}
   ]]>
  </style>
 </defs>
 <g id="Layer_x0020_1">
  <metadata id="CorelCorpID_0Corel-Layer"/>
  <g id="_3154150038448">
   <path class="fil0" d="M0 0.62c0,-0.11 0.02,-0.21 0.04,-0.29 0.03,-0.08 0.08,-0.14 0.13,-0.19 0.05,-0.05 0.11,-0.09 0.18,-0.11 0.07,-0.02 0.15,-0.03 0.23,-0.03 0.08,0 0.15,0.01 0.22,0.03 0.07,0.02 0.13,0.06 0.18,0.11 0.06,0.05 0.1,0.11 0.13,0.19 0.03,0.08 0.05,0.18 0.05,0.29 0,0.11 -0.02,0.21 -0.05,0.29 -0.03,0.08 -0.07,0.14 -0.13,0.19 -0.05,0.05 -0.11,0.08 -0.18,0.11 -0.07,0.02 -0.14,0.03 -0.22,0.03 -0.08,0 -0.16,-0.01 -0.23,-0.03 -0.07,-0.03 -0.13,-0.06 -0.18,-0.11 -0.05,-0.05 -0.1,-0.11 -0.13,-0.19 -0.02,-0.08 -0.04,-0.18 -0.04,-0.29zm0.58 0.39c0.04,0 0.08,-0.01 0.12,-0.02 0.04,-0.01 0.07,-0.03 0.1,-0.06 0.03,-0.03 0.05,-0.07 0.07,-0.12 0.01,-0.05 0.02,-0.12 0.02,-0.19 0,-0.08 -0.01,-0.14 -0.02,-0.19 -0.02,-0.05 -0.04,-0.09 -0.07,-0.12 -0.02,-0.02 -0.05,-0.04 -0.08,-0.05 0,-0.01 0,-0.01 0,-0.02 0,-0.08 -0.06,-0.14 -0.14,-0.14 -0.08,0 -0.14,0.06 -0.14,0.14 0,0.01 0,0.01 0,0.02 -0.03,0.01 -0.06,0.03 -0.08,0.05 -0.03,0.03 -0.05,0.07 -0.07,0.12 -0.02,0.05 -0.03,0.11 -0.03,0.19 0,0.07 0.01,0.14 0.03,0.19 0.02,0.05 0.04,0.09 0.07,0.12 0.02,0.03 0.06,0.05 0.1,0.06 0.04,0.01 0.08,0.02 0.12,0.02z"/>
   <path class="fil1" d="M1.35 1.21c0.08,0 0.14,-0.06 0.14,-0.14 0,0 0,-0.01 0,-0.01 0,0 -0.01,0 -0.02,0.01 -0.03,0.01 -0.07,0.01 -0.12,0.01 -0.04,0 -0.08,0 -0.12,-0.01 -0.01,-0.01 -0.01,-0.01 -0.02,-0.01 0,0 0,0.01 0,0.01 0,0.08 0.06,0.14 0.14,0.14z"/>
  </g>
 </g>
</svg>
