<?xml version="1.0" encoding="UTF-8"?>
<!DOCTYPE svg PUBLIC "-//W3C//DTD SVG 1.1//EN" "http://www.w3.org/Graphics/SVG/1.1/DTD/svg11.dtd">
<!-- Creator: CorelDRAW 2020 (64-Bit) -->
<svg xmlns="http://www.w3.org/2000/svg" xml:space="preserve" width="373px" height="96px" version="1.1" style="shape-rendering:geometricPrecision; text-rendering:geometricPrecision; image-rendering:optimizeQuality; fill-rule:evenodd; clip-rule:evenodd"
viewBox="0 0 372.74 95.75"
 xmlns:xlink="http://www.w3.org/1999/xlink"
 xmlns:xodm="http://www.corel.com/coreldraw/odm/2003">
 <defs>
  <style type="text/css">
   <![CDATA[
    .fil1 {fill:#848688}
    .fil0 {fill:#201E1E;fill-rule:nonzero}
   ]]>
  </style>
 </defs>
 <g id="Layer_x0020_1">
  <metadata id="CorelCorpID_0Corel-Layer"/>
  <path class="fil0" d="M44.91 82.88l0.48 3.46 0.03 0 0.5 -3.52 4.3 -13.94 1.2 0 4.32 14 0.52 3.46 0.04 0 0.54 -3.52 3.53 -13.94 2.39 0 -5.82 21.23 -1.37 0 -4.24 -14 -0.54 -3.17 -0.15 0 -0.54 3.2 -4.24 13.97 -1.37 0 -5.97 -21.23 2.63 0 3.76 14zm30.03 5.7c-0.6,0.48 -1.35,0.86 -2.26,1.14 -0.9,0.28 -1.86,0.42 -2.88,0.42 -1.13,0 -2.12,-0.19 -2.95,-0.56 -0.84,-0.36 -1.52,-0.89 -2.06,-1.58 -0.54,-0.69 -0.94,-1.51 -1.2,-2.46 -0.25,-0.96 -0.38,-2.03 -0.38,-3.23 0,-2.54 0.56,-4.48 1.7,-5.82 1.13,-1.33 2.75,-2 4.86,-2 0.68,0 1.36,0.08 2.03,0.23 0.68,0.15 1.29,0.43 1.82,0.85 0.54,0.42 0.98,1.01 1.32,1.78 0.34,0.76 0.51,1.77 0.51,3.02 0,0.66 -0.06,1.39 -0.18,2.18l-9.59 0c0,0.88 0.09,1.66 0.27,2.33 0.18,0.68 0.46,1.25 0.84,1.72 0.38,0.47 0.87,0.82 1.48,1.07 0.6,0.25 1.34,0.38 2.22,0.38 0.68,0 1.35,-0.12 2.03,-0.36 0.68,-0.24 1.18,-0.52 1.52,-0.84l0.9 1.73zm-5.14 -12c-1.17,0 -2.11,0.31 -2.82,0.93 -0.7,0.62 -1.13,1.67 -1.27,3.16l7.41 0c0,-1.51 -0.29,-2.57 -0.87,-3.18 -0.58,-0.6 -1.39,-0.91 -2.45,-0.91zm9.41 -7.7l2.38 0 0 7.43 0.12 0c0.46,-0.57 1.04,-1.02 1.75,-1.34 0.71,-0.32 1.48,-0.48 2.31,-0.48 1.93,0 3.38,0.62 4.35,1.85 0.96,1.24 1.45,3.15 1.45,5.74 0,2.6 -0.64,4.58 -1.92,5.94 -1.27,1.35 -3.06,2.03 -5.37,2.03 -1.11,0 -2.12,-0.12 -3.03,-0.36 -0.9,-0.24 -1.58,-0.5 -2.04,-0.78l0 -20.03zm6.15 7.7c-1,0 -1.81,0.28 -2.42,0.84 -0.62,0.56 -1.07,1.34 -1.35,2.36l0 7.52c0.38,0.22 0.84,0.38 1.38,0.49 0.54,0.11 1.09,0.17 1.67,0.17 1.35,0 2.43,-0.48 3.24,-1.44 0.8,-0.95 1.21,-2.44 1.21,-4.47 0,-0.78 -0.07,-1.51 -0.21,-2.18 -0.14,-0.68 -0.36,-1.26 -0.66,-1.73 -0.3,-0.48 -0.68,-0.86 -1.15,-1.14 -0.46,-0.28 -1.04,-0.42 -1.71,-0.42zm8.77 11.91c0,-0.47 0.16,-0.86 0.48,-1.16 0.32,-0.3 0.73,-0.45 1.22,-0.45 0.62,0 1.12,0.22 1.51,0.66 0.39,0.44 0.58,1.07 0.58,1.91 0,0.72 -0.1,1.34 -0.29,1.88 -0.2,0.54 -0.46,1 -0.78,1.39 -0.32,0.39 -0.67,0.7 -1.05,0.95 -0.37,0.25 -0.75,0.44 -1.13,0.56l-0.75 -1.17c0.72,-0.28 1.25,-0.71 1.6,-1.3 0.35,-0.58 0.52,-1.18 0.52,-1.77 -0.18,0.06 -0.35,0.09 -0.5,0.09 -0.4,0 -0.74,-0.14 -1,-0.41 -0.27,-0.27 -0.41,-0.66 -0.41,-1.18zm29.5 -12.74l0.29 -3.14 -0.15 0 -1.13 2.87 -5.43 9.43 -0.75 0 -5.76 -9.46 -1.08 -2.84 -0.14 0 0.41 3.11 0 14.06 -2.32 0 0 -20.9 1.85 0 6.53 10.69 0.99 2.33 0.06 0 0.92 -2.39 6.24 -10.63 1.94 0 0 20.9 -2.47 0 0 -14.03zm6.47 6.56c0,-2.52 0.56,-4.46 1.69,-5.8 1.12,-1.34 2.74,-2.02 4.85,-2.02 1.11,0 2.08,0.19 2.91,0.56 0.83,0.36 1.51,0.89 2.04,1.58 0.54,0.68 0.94,1.51 1.2,2.48 0.26,0.96 0.39,2.03 0.39,3.2 0,2.53 -0.57,4.47 -1.69,5.81 -1.12,1.34 -2.74,2.02 -4.85,2.02 -1.11,0 -2.08,-0.19 -2.91,-0.56 -0.83,-0.36 -1.51,-0.89 -2.05,-1.58 -0.53,-0.69 -0.93,-1.51 -1.19,-2.48 -0.26,-0.96 -0.39,-2.03 -0.39,-3.21zm2.48 0c0,0.76 0.07,1.49 0.22,2.18 0.15,0.7 0.39,1.31 0.71,1.83 0.31,0.51 0.73,0.93 1.25,1.25 0.52,0.32 1.14,0.48 1.88,0.48 2.71,0.02 4.06,-1.89 4.06,-5.74 0,-0.77 -0.08,-1.51 -0.23,-2.2 -0.14,-0.7 -0.38,-1.31 -0.7,-1.83 -0.31,-0.51 -0.73,-0.93 -1.25,-1.23 -0.52,-0.31 -1.14,-0.47 -1.88,-0.47 -2.71,-0.02 -4.06,1.89 -4.06,5.73zm14.36 -13.43l2.39 0 0 7.43 0.11 0c0.46,-0.57 1.05,-1.02 1.75,-1.34 0.71,-0.32 1.48,-0.48 2.32,-0.48 1.92,0 3.37,0.62 4.34,1.85 0.96,1.24 1.45,3.15 1.45,5.74 0,2.6 -0.64,4.58 -1.91,5.94 -1.28,1.35 -3.07,2.03 -5.38,2.03 -1.11,0 -2.12,-0.12 -3.03,-0.36 -0.9,-0.24 -1.58,-0.5 -2.04,-0.78l0 -20.03zm6.15 7.7c-1,0 -1.8,0.28 -2.42,0.84 -0.62,0.56 -1.07,1.34 -1.34,2.36l0 7.52c0.37,0.22 0.83,0.38 1.37,0.49 0.54,0.11 1.09,0.17 1.67,0.17 1.35,0 2.43,-0.48 3.24,-1.44 0.81,-0.95 1.21,-2.44 1.21,-4.47 0,-0.78 -0.07,-1.51 -0.21,-2.18 -0.14,-0.68 -0.36,-1.26 -0.66,-1.73 -0.3,-0.48 -0.68,-0.86 -1.15,-1.14 -0.46,-0.28 -1.04,-0.42 -1.71,-0.42zm10.47 -1.73l2.39 0 0 14.93 -2.39 0 0 -14.93zm-0.5 -4.53c0,-0.46 0.15,-0.86 0.46,-1.18 0.31,-0.33 0.7,-0.5 1.18,-0.5 0.48,0 0.88,0.17 1.22,0.5 0.34,0.32 0.51,0.72 0.51,1.18 0,0.45 -0.17,0.83 -0.51,1.13 -0.34,0.3 -0.74,0.45 -1.22,0.45 -0.48,0 -0.87,-0.15 -1.18,-0.45 -0.31,-0.3 -0.46,-0.68 -0.46,-1.13zm10.65 15.79c0,0.69 0.12,1.19 0.36,1.49 0.24,0.3 0.58,0.45 1.02,0.45 0.26,0 0.53,-0.02 0.83,-0.06 0.3,-0.04 0.64,-0.13 1.02,-0.27l0.27 1.88c-0.32,0.16 -0.77,0.29 -1.33,0.39 -0.57,0.1 -1.06,0.15 -1.48,0.15 -0.9,0 -1.63,-0.26 -2.21,-0.76 -0.58,-0.51 -0.86,-1.37 -0.86,-2.59l0 -17.91 2.38 0 0 17.23zm16.96 2.47c-0.6,0.48 -1.35,0.86 -2.25,1.14 -0.91,0.28 -1.87,0.42 -2.89,0.42 -1.13,0 -2.11,-0.19 -2.95,-0.56 -0.84,-0.36 -1.52,-0.89 -2.06,-1.58 -0.54,-0.69 -0.94,-1.51 -1.2,-2.46 -0.25,-0.96 -0.38,-2.03 -0.38,-3.23 0,-2.54 0.56,-4.48 1.7,-5.82 1.13,-1.33 2.76,-2 4.86,-2 0.68,0 1.36,0.08 2.03,0.23 0.68,0.15 1.29,0.43 1.82,0.85 0.54,0.42 0.98,1.01 1.32,1.78 0.34,0.76 0.51,1.77 0.51,3.02 0,0.66 -0.06,1.39 -0.18,2.18l-9.59 0c0,0.88 0.09,1.66 0.27,2.33 0.18,0.68 0.46,1.25 0.84,1.72 0.38,0.47 0.87,0.82 1.48,1.07 0.6,0.25 1.34,0.38 2.22,0.38 0.68,0 1.35,-0.12 2.03,-0.36 0.68,-0.24 1.18,-0.52 1.52,-0.84l0.9 1.73zm-5.14 -12c-1.17,0 -2.11,0.31 -2.82,0.93 -0.7,0.62 -1.13,1.67 -1.27,3.16l7.41 0c0,-1.51 -0.29,-2.57 -0.87,-3.18 -0.57,-0.6 -1.39,-0.91 -2.45,-0.91zm8.57 11.91c0,-0.47 0.16,-0.86 0.48,-1.16 0.32,-0.3 0.73,-0.45 1.22,-0.45 0.62,0 1.12,0.22 1.51,0.66 0.39,0.44 0.58,1.07 0.58,1.91 0,0.72 -0.1,1.34 -0.3,1.88 -0.2,0.54 -0.45,1 -0.77,1.39 -0.32,0.39 -0.67,0.7 -1.05,0.95 -0.37,0.25 -0.75,0.44 -1.13,0.56l-0.75 -1.17c0.72,-0.28 1.25,-0.71 1.6,-1.3 0.35,-0.58 0.52,-1.18 0.52,-1.77 -0.18,0.06 -0.35,0.09 -0.51,0.09 -0.39,0 -0.73,-0.14 -1,-0.41 -0.26,-0.27 -0.4,-0.66 -0.4,-1.18zm13.43 -19.61l11.38 0 0 2.21 -8.9 0 0 6.84 8.15 0 0 2.21 -8.15 0 0 7.43 9.05 0 0 2.21 -11.53 0 0 -20.9zm25.35 20.9l0 -8.51c0,-1.55 -0.23,-2.72 -0.67,-3.51 -0.45,-0.78 -1.27,-1.18 -2.47,-1.18 -1.05,0 -1.92,0.29 -2.61,0.85 -0.69,0.57 -1.17,1.28 -1.45,2.14l0 10.21 -2.38 0 0 -14.93 1.67 0 0.45 1.82 0.11 0c0.48,-0.63 1.12,-1.16 1.93,-1.56 0.81,-0.41 1.77,-0.62 2.88,-0.62 0.82,0 1.53,0.1 2.15,0.29 0.62,0.19 1.13,0.52 1.54,1 0.4,0.47 0.71,1.12 0.92,1.92 0.21,0.81 0.32,1.83 0.32,3.06l0 9.02 -2.39 0zm4.77 -14.93l2.33 0 0 -2.95 2.39 -0.69 0 3.64 4.06 0 0 2.09 -4.06 0 0 8.27c0,1.04 0.13,1.77 0.39,2.19 0.26,0.43 0.69,0.65 1.31,0.65 0.52,0 0.96,-0.06 1.31,-0.17 0.36,-0.11 0.76,-0.25 1.2,-0.43l0.54 1.82c-0.54,0.26 -1.13,0.47 -1.77,0.63 -0.63,0.16 -1.32,0.24 -2.06,0.24 -1.21,0 -2.07,-0.35 -2.56,-1.03 -0.5,-0.69 -0.75,-1.84 -0.75,-3.45l0 -8.72 -2.33 0 0 -2.09zm22.66 13.73c-0.6,0.48 -1.35,0.86 -2.25,1.14 -0.91,0.28 -1.87,0.42 -2.88,0.42 -1.14,0 -2.12,-0.19 -2.96,-0.56 -0.84,-0.36 -1.52,-0.89 -2.06,-1.58 -0.54,-0.69 -0.93,-1.51 -1.19,-2.46 -0.26,-0.96 -0.39,-2.03 -0.39,-3.23 0,-2.54 0.57,-4.48 1.7,-5.82 1.13,-1.33 2.76,-2 4.87,-2 0.67,0 1.35,0.08 2.03,0.23 0.67,0.15 1.28,0.43 1.82,0.85 0.53,0.42 0.97,1.01 1.31,1.78 0.34,0.76 0.51,1.77 0.51,3.02 0,0.66 -0.06,1.39 -0.18,2.18l-9.58 0c0,0.88 0.09,1.66 0.27,2.33 0.17,0.68 0.45,1.25 0.83,1.72 0.38,0.47 0.87,0.82 1.48,1.07 0.61,0.25 1.35,0.38 2.22,0.38 0.68,0 1.36,-0.12 2.03,-0.36 0.68,-0.24 1.19,-0.52 1.53,-0.84l0.89 1.73zm-5.13 -12c-1.18,0 -2.12,0.31 -2.83,0.93 -0.7,0.62 -1.12,1.67 -1.26,3.16l7.4 0c0,-1.51 -0.29,-2.57 -0.87,-3.18 -0.57,-0.6 -1.39,-0.91 -2.44,-0.91zm16.44 0.57c-0.59,-0.2 -1.16,-0.3 -1.7,-0.3 -0.85,0 -1.53,0.24 -2.03,0.7 -0.5,0.47 -0.8,1.06 -0.92,1.78l0 10.45 -2.39 0 0 -14.93 1.67 0 0.45 1.82 0.12 0c0.38,-0.67 0.83,-1.2 1.36,-1.56 0.52,-0.37 1.2,-0.56 2.01,-0.56 0.58,0 1.22,0.1 1.94,0.3l-0.51 2.3zm3.11 -2.3l1.64 0 0.45 1.79 0.12 0c0.45,-0.69 1.05,-1.23 1.77,-1.59 0.73,-0.37 1.56,-0.56 2.5,-0.56 1.99,0 3.47,0.59 4.44,1.76 0.98,1.18 1.47,3.1 1.47,5.77 0,1.25 -0.17,2.38 -0.5,3.38 -0.32,1.01 -0.79,1.86 -1.38,2.56 -0.6,0.69 -1.32,1.23 -2.17,1.61 -0.84,0.38 -1.79,0.57 -2.82,0.57 -0.74,0 -1.32,-0.05 -1.75,-0.14 -0.42,-0.09 -0.89,-0.24 -1.38,-0.46l0 6.21 -2.39 0 0 -20.9zm6.03 1.73c-1.02,0 -1.82,0.27 -2.41,0.79 -0.58,0.53 -1,1.33 -1.23,2.41l0 7.4c0.35,0.28 0.76,0.49 1.22,0.64 0.46,0.15 1.06,0.23 1.82,0.23 1.37,0 2.46,-0.52 3.27,-1.54 0.8,-1.03 1.21,-2.53 1.21,-4.52 0,-0.82 -0.07,-1.56 -0.21,-2.23 -0.14,-0.66 -0.36,-1.23 -0.67,-1.7 -0.31,-0.47 -0.71,-0.83 -1.2,-1.09 -0.48,-0.26 -1.09,-0.39 -1.8,-0.39zm17.16 0.57c-0.6,-0.2 -1.16,-0.3 -1.7,-0.3 -0.86,0 -1.53,0.24 -2.03,0.7 -0.5,0.47 -0.81,1.06 -0.92,1.78l0 10.45 -2.39 0 0 -14.93 1.67 0 0.45 1.82 0.12 0c0.37,-0.67 0.83,-1.2 1.35,-1.56 0.53,-0.37 1.2,-0.56 2.02,-0.56 0.58,0 1.22,0.1 1.94,0.3l-0.51 2.3zm3.61 -2.3l2.39 0 0 14.93 -2.39 0 0 -14.93zm-0.5 -4.53c0,-0.46 0.15,-0.86 0.46,-1.18 0.31,-0.33 0.7,-0.5 1.18,-0.5 0.48,0 0.88,0.17 1.22,0.5 0.34,0.32 0.51,0.72 0.51,1.18 0,0.45 -0.17,0.83 -0.51,1.13 -0.34,0.3 -0.74,0.45 -1.22,0.45 -0.48,0 -0.87,-0.15 -1.18,-0.45 -0.31,-0.3 -0.46,-0.68 -0.46,-1.13zm14.56 15.4c0,-0.6 -0.18,-1.07 -0.53,-1.41 -0.36,-0.33 -0.8,-0.62 -1.33,-0.85 -0.53,-0.22 -1.11,-0.44 -1.73,-0.65 -0.63,-0.21 -1.21,-0.48 -1.74,-0.81 -0.52,-0.33 -0.97,-0.75 -1.32,-1.27 -0.36,-0.51 -0.54,-1.21 -0.54,-2.09 0,-1.43 0.41,-2.48 1.22,-3.15 0.82,-0.66 1.95,-1 3.41,-1 1.07,0 1.97,0.1 2.7,0.29 0.72,0.19 1.36,0.41 1.89,0.67l-0.56 1.97c-0.46,-0.22 -1.01,-0.41 -1.66,-0.58 -0.65,-0.17 -1.34,-0.26 -2.08,-0.26 -0.87,0 -1.51,0.15 -1.92,0.45 -0.41,0.3 -0.61,0.82 -0.61,1.55 0,0.52 0.18,0.92 0.53,1.21 0.36,0.29 0.81,0.55 1.33,0.78 0.53,0.23 1.11,0.45 1.73,0.67 0.63,0.22 1.21,0.51 1.74,0.87 0.52,0.35 0.97,0.81 1.32,1.35 0.36,0.55 0.54,1.27 0.54,2.17 0,0.64 -0.1,1.23 -0.31,1.79 -0.21,0.56 -0.53,1.03 -0.97,1.43 -0.44,0.4 -0.98,0.71 -1.63,0.94 -0.65,0.23 -1.41,0.35 -2.28,0.35 -1.14,0 -2.1,-0.11 -2.9,-0.33 -0.79,-0.22 -1.46,-0.48 -2,-0.78l0.72 -2.03c0.46,0.26 1.05,0.5 1.79,0.72 0.74,0.22 1.48,0.33 2.24,0.33 0.85,0 1.56,-0.17 2.12,-0.51 0.56,-0.34 0.83,-0.95 0.83,-1.82zm16.9 2.86c-0.6,0.48 -1.35,0.86 -2.25,1.14 -0.91,0.28 -1.87,0.42 -2.89,0.42 -1.13,0 -2.11,-0.19 -2.95,-0.56 -0.84,-0.36 -1.52,-0.89 -2.06,-1.58 -0.54,-0.69 -0.94,-1.51 -1.19,-2.46 -0.26,-0.96 -0.39,-2.03 -0.39,-3.23 0,-2.54 0.56,-4.48 1.7,-5.82 1.13,-1.33 2.76,-2 4.86,-2 0.68,0 1.36,0.08 2.03,0.23 0.68,0.15 1.29,0.43 1.82,0.85 0.54,0.42 0.98,1.01 1.32,1.78 0.34,0.76 0.51,1.77 0.51,3.02 0,0.66 -0.06,1.39 -0.18,2.18l-9.58 0c0,0.88 0.08,1.66 0.26,2.33 0.18,0.68 0.46,1.25 0.84,1.72 0.38,0.47 0.87,0.82 1.48,1.07 0.6,0.25 1.34,0.38 2.22,0.38 0.68,0 1.35,-0.12 2.03,-0.36 0.68,-0.24 1.19,-0.52 1.52,-0.84l0.9 1.73zm-5.14 -12c-1.17,0 -2.11,0.31 -2.82,0.93 -0.7,0.62 -1.13,1.67 -1.27,3.16l7.41 0c0,-1.51 -0.29,-2.57 -0.87,-3.18 -0.57,-0.6 -1.39,-0.91 -2.45,-0.91z"/>
  <path class="fil0" d="M18.99 44.95c-2.6,0 -5.05,-0.39 -7.36,-1.16 -2.3,-0.78 -4.32,-2.04 -6.04,-3.78 -1.71,-1.73 -3.08,-4 -4.08,-6.78 -1.01,-2.79 -1.51,-6.22 -1.51,-10.28 0,-4.07 0.5,-7.51 1.51,-10.31 1,-2.81 2.37,-5.08 4.08,-6.79 1.72,-1.72 3.74,-2.97 6.04,-3.74 2.31,-0.78 4.76,-1.17 7.36,-1.17l16.47 0 0 8.55 -15.28 0c-1.21,0 -2.38,0.15 -3.49,0.44 -1.11,0.3 -2.11,0.8 -3.02,1.51 -0.9,0.71 -1.66,1.66 -2.29,2.83 -0.63,1.17 -1.07,2.64 -1.32,4.4l25.4 0 0 8.55 -25.4 0c0.25,1.76 0.69,3.23 1.32,4.4 0.63,1.18 1.39,2.12 2.29,2.83 0.91,0.71 1.91,1.22 3.02,1.51 1.11,0.29 2.28,0.44 3.49,0.44l15.28 0 0 8.55 -16.47 0zm22.63 -44.01l13.39 0 11 30.56c0.88,-2.43 1.78,-4.94 2.71,-7.52 0.92,-2.57 1.86,-5.17 2.82,-7.79 0.97,-2.62 1.91,-5.22 2.83,-7.8 0.93,-2.57 1.83,-5.06 2.71,-7.45l13.32 0 0 44.01 -9.55 0 0 -27.28 -9.85 27.28 -9.98 0 -9.59 -27.28 0 27.28 -9.81 0 0 -44.01zm69.34 0l10 0 19.61 44.01 -10.87 0 -3.65 -8.55 -20.24 0 -3.59 8.55 -10.87 0 19.61 -44.01zm11.51 26.91c-1.13,-2.68 -2.21,-5.22 -3.24,-7.61 -1.03,-2.39 -2.13,-4.96 -3.3,-7.73l-6.48 15.34 13.02 0zm19.05 -26.91l9.8 0 0 17.73 18.3 0 0 -17.73 9.81 0 0 44.01 -9.81 0 0 -17.73 -18.3 0 0 17.73 -9.8 0 0 -44.01zm42.12 22.01c0,-4.24 0.55,-7.82 1.66,-10.75 1.11,-2.94 2.63,-5.31 4.56,-7.11 1.93,-1.8 4.2,-3.1 6.82,-3.9 2.62,-0.79 5.42,-1.19 8.39,-1.19 2.9,0 5.63,0.4 8.21,1.19 2.58,0.8 4.84,2.1 6.79,3.9 1.95,1.8 3.5,4.17 4.65,7.11 1.15,2.93 1.73,6.51 1.73,10.75 0,4.23 -0.58,7.8 -1.73,10.71 -1.15,2.92 -2.7,5.28 -4.65,7.08 -1.95,1.8 -4.21,3.1 -6.79,3.9 -2.58,0.79 -5.31,1.19 -8.21,1.19 -2.97,0 -5.77,-0.4 -8.39,-1.19 -2.62,-0.8 -4.89,-2.1 -6.82,-3.9 -1.93,-1.8 -3.45,-4.16 -4.56,-7.08 -1.11,-2.91 -1.66,-6.48 -1.66,-10.71zm21.43 14.33c1.6,0 3.1,-0.22 4.5,-0.66 1.4,-0.44 2.63,-1.22 3.68,-2.33 1.05,-1.11 1.87,-2.58 2.48,-4.43 0.61,-1.84 0.91,-4.15 0.91,-6.91 0,-2.77 -0.3,-5.09 -0.91,-6.95 -0.61,-1.87 -1.43,-3.34 -2.48,-4.43 -0.88,-0.92 -1.89,-1.61 -3.02,-2.08 0.02,-0.19 0.03,-0.38 0.03,-0.57 0,-2.87 -2.33,-5.2 -5.21,-5.2 -2.87,0 -5.2,2.33 -5.2,5.2 0,0.19 0.01,0.38 0.03,0.57 -1.15,0.47 -2.16,1.16 -3.04,2.08 -1.05,1.09 -1.88,2.56 -2.48,4.43 -0.61,1.86 -0.92,4.18 -0.92,6.95 0,2.76 0.31,5.07 0.92,6.91 0.6,1.85 1.43,3.32 2.48,4.43 1.05,1.11 2.28,1.89 3.71,2.33 1.42,0.44 2.93,0.66 4.52,0.66z"/>
  <path class="fil0" d="M244.37 0.94l21.4 0c2.61,0 5.05,0.39 7.34,1.17 2.29,0.77 4.29,2.02 6.01,3.74 1.72,1.71 3.09,3.98 4.1,6.79 1,2.8 1.51,6.24 1.51,10.31 0,4.06 -0.51,7.49 -1.51,10.28 -1.01,2.78 -2.38,5.05 -4.1,6.78 -1.72,1.74 -3.72,3 -6.01,3.78 -2.29,0.77 -4.73,1.16 -7.34,1.16l-21.4 0 0 -44.01zm20.15 35.46c1.42,0 2.76,-0.21 4.04,-0.63 1.28,-0.42 2.38,-1.15 3.32,-2.2 0.94,-1.05 1.68,-2.43 2.22,-4.15 0.55,-1.72 0.82,-3.88 0.82,-6.47 0,-2.6 -0.27,-4.77 -0.82,-6.51 -0.54,-1.74 -1.28,-3.12 -2.22,-4.15 -0.94,-1.03 -2.04,-1.75 -3.32,-2.17 -1.28,-0.42 -2.62,-0.63 -4.04,-0.63l-10.35 0 0 26.91 10.35 0zm41.58 8.55c-2.6,0 -5.05,-0.39 -7.35,-1.16 -2.31,-0.78 -4.32,-2.04 -6.04,-3.78 -1.72,-1.73 -3.08,-4 -4.08,-6.78 -1.01,-2.79 -1.51,-6.22 -1.51,-10.28 0,-4.07 0.5,-7.51 1.51,-10.31 1,-2.81 2.36,-5.08 4.08,-6.79 1.72,-1.72 3.73,-2.97 6.04,-3.74 2.3,-0.78 4.75,-1.17 7.35,-1.17l16.47 0 0 8.55 -15.27 0c-1.22,0 -2.38,0.15 -3.49,0.44 -1.11,0.3 -2.12,0.8 -3.02,1.51 -0.9,0.71 -1.67,1.66 -2.29,2.83 -0.63,1.17 -1.07,2.64 -1.32,4.4l25.39 0 0 8.55 -25.39 0c0.25,1.76 0.69,3.23 1.32,4.4 0.62,1.18 1.39,2.12 2.29,2.83 0.9,0.71 1.91,1.22 3.02,1.51 1.11,0.29 2.27,0.44 3.49,0.44l15.27 0 0 8.55 -16.47 0zm17.42 -44.01l10.81 0 13.77 32.51 13.83 -32.51 10.81 0 -19.61 44.01 -10 0 -19.61 -44.01z"/>
  <path class="fil1" d="M233.7 44.98c2.87,0 5.2,-2.33 5.2,-5.21 0,-0.19 -0.01,-0.37 -0.03,-0.56 -0.21,0.09 -0.43,0.17 -0.65,0.24 -1.4,0.47 -2.9,0.7 -4.49,0.7 -1.59,0 -3.1,-0.23 -4.53,-0.7 -0.23,-0.07 -0.46,-0.15 -0.68,-0.25 -0.02,0.19 -0.03,0.38 -0.03,0.57 0,2.88 2.33,5.21 5.21,5.21z"/>
 </g>
</svg>
